<svg width="27" height="27" viewBox="0 0 27 27" fill="none" xmlns="http://www.w3.org/2000/svg">
<path d="M13.3955 8.52032C12.4313 8.52032 11.4888 8.80624 10.6871 9.34191C9.88541 9.87758 9.26057 10.639 8.8916 11.5297C8.52262 12.4205 8.42608 13.4007 8.61418 14.3464C8.80228 15.292 9.26658 16.1607 9.94836 16.8425C10.6301 17.5243 11.4988 17.9886 12.4444 18.1767C13.3901 18.3648 14.3703 18.2682 15.2611 17.8992C16.1519 17.5303 16.9132 16.9054 17.4489 16.1037C17.9846 15.302 18.2705 14.3595 18.2705 13.3953C18.2692 12.1028 17.7551 10.8636 16.8412 9.94966C15.9272 9.03572 14.688 8.52167 13.3955 8.52032ZM13.3955 15.8328C12.9134 15.8328 12.4422 15.6899 12.0413 15.422C11.6405 15.1542 11.328 14.7735 11.1436 14.3281C10.9591 13.8827 10.9108 13.3926 11.0048 12.9198C11.0989 12.447 11.331 12.0126 11.6719 11.6718C12.0128 11.3309 12.4471 11.0987 12.92 11.0047C13.3928 10.9106 13.8829 10.9589 14.3283 11.1434C14.7737 11.3279 15.1544 11.6403 15.4222 12.0411C15.6901 12.442 15.833 12.9132 15.833 13.3953C15.833 14.0418 15.5762 14.6618 15.1191 15.1189C14.662 15.576 14.042 15.8328 13.3955 15.8328ZM18.2705 2.42657H8.52051C6.90492 2.42846 5.35605 3.07108 4.21365 4.21347C3.07126 5.35586 2.42864 6.90474 2.42676 8.52032V18.2703C2.42864 19.8859 3.07126 21.4348 4.21365 22.5772C5.35605 23.7196 6.90492 24.3622 8.52051 24.3641H18.2705C19.8861 24.3622 21.435 23.7196 22.5774 22.5772C23.7198 21.4348 24.3624 19.8859 24.3643 18.2703V8.52032C24.3624 6.90474 23.7198 5.35586 22.5774 4.21347C21.435 3.07108 19.8861 2.42846 18.2705 2.42657ZM21.9268 18.2703C21.9268 19.24 21.5415 20.17 20.8559 20.8557C20.1702 21.5414 19.2402 21.9266 18.2705 21.9266H8.52051C7.55081 21.9266 6.62083 21.5414 5.93515 20.8557C5.24947 20.17 4.86426 19.24 4.86426 18.2703V8.52032C4.86426 7.55063 5.24947 6.62065 5.93515 5.93497C6.62083 5.24929 7.55081 4.86407 8.52051 4.86407H18.2705C19.2402 4.86407 20.1702 5.24929 20.8559 5.93497C21.5415 6.62065 21.9268 7.55063 21.9268 8.52032V18.2703ZM20.3018 8.11407C20.3018 8.43547 20.2065 8.74965 20.0279 9.01688C19.8493 9.28411 19.5955 9.49239 19.2986 9.61538C19.0017 9.73837 18.675 9.77055 18.3597 9.70785C18.0445 9.64515 17.755 9.49038 17.5277 9.26312C17.3004 9.03586 17.1457 8.74632 17.083 8.4311C17.0203 8.11588 17.0525 7.78914 17.1755 7.49221C17.2984 7.19528 17.5067 6.94149 17.774 6.76294C18.0412 6.58438 18.3554 6.48907 18.6768 6.48907C19.1077 6.48907 19.5211 6.66028 19.8258 6.96503C20.1306 7.26977 20.3018 7.6831 20.3018 8.11407Z" fill="#7551DC"/>
</svg>
