<svg width="27" height="27" viewBox="0 0 27 27" fill="none" xmlns="http://www.w3.org/2000/svg">
<path d="M22.5142 21.6788L16.3189 11.9491L22.3842 5.27743C22.597 5.03753 22.7067 4.72341 22.6895 4.40317C22.6723 4.08293 22.5295 3.78239 22.2922 3.5667C22.0548 3.35101 21.742 3.23756 21.4216 3.25095C21.1012 3.26434 20.799 3.40348 20.5805 3.63822L14.9671 9.81728L11.1392 3.80376C11.0292 3.6308 10.8773 3.48837 10.6977 3.38967C10.518 3.29096 10.3164 3.23917 10.1114 3.23907H5.23639C5.01807 3.23918 4.80379 3.29792 4.61593 3.40916C4.42808 3.52041 4.27356 3.68007 4.16853 3.87146C4.06349 4.06286 4.01179 4.27895 4.01884 4.49716C4.02588 4.71536 4.09141 4.92767 4.20858 5.11189L10.4039 14.8416L4.33452 21.5132C4.22462 21.6313 4.13926 21.7699 4.08336 21.9212C4.02746 22.0725 4.00214 22.2334 4.00887 22.3945C4.01561 22.5557 4.05426 22.7139 4.12258 22.8599C4.1909 23.006 4.28754 23.1371 4.40689 23.2456C4.52625 23.354 4.66594 23.4377 4.81789 23.4918C4.96983 23.5459 5.13099 23.5693 5.29203 23.5606C5.45308 23.552 5.6108 23.5114 5.75607 23.4414C5.90133 23.3713 6.03124 23.2731 6.13827 23.1524L11.7557 16.9734L15.5836 22.9869C15.6936 23.1599 15.8454 23.3023 16.0251 23.401C16.2048 23.4997 16.4064 23.5515 16.6114 23.5516H21.4864C21.7047 23.5515 21.919 23.4927 22.1068 23.3815C22.2947 23.2702 22.4492 23.1106 22.5543 22.9192C22.6593 22.7278 22.711 22.5117 22.7039 22.2935C22.6969 22.0753 22.6314 21.863 22.5142 21.6788ZM17.2807 21.1141L7.45655 5.67657H9.44209L19.2662 21.1141H17.2807Z" fill="#7551DC"/>
</svg>
